<svg id="Capa_1" data-name="Capa 1" xmlns="http://www.w3.org/2000/svg" viewBox="0 0 270.8 216.54"><defs><style>.cls-1{fill:#ffa353;}.cls-2{fill:#fff;}.cls-3{fill:#ffe243;}.cls-4{fill:#81d385;}.cls-5{fill:#797f7c;}.cls-6{fill:#4b4d4b;}</style></defs><path class="cls-1" d="M730.76,340.48l.17-.36c19.1-39.45,59.92-89.71,60.33-90.21l3-3.73V414.23l-2.17-.61a53.19,53.19,0,0,0-13-1.5c-14.22,0-33.58,5-45.09,28.77l-3.25,6.71Z" transform="translate(-596.77 -241.38)"/><path class="cls-2" d="M792.58,251V412a54.62,54.62,0,0,0-13.48-1.56c-13.66,0-34.47,4.61-46.63,29.73V340.87C751.7,301.14,792.58,251,792.58,251m3.42-9.61-6.07,7.45c-.41.5-41.36,50.92-60.54,90.55l-.34.71v115l6.5-13.43c11.12-23,29.82-27.8,43.55-27.8a52.47,52.47,0,0,1,12.56,1.43l4.34,1.21V241.38Z" transform="translate(-596.77 -241.38)"/><path class="cls-3" d="M730.76,340.48l.17-.36c14.44-29.84,75.42-74.22,78-76.1l3-2.13-.25,3.63c-.09,1.45-9.64,144.16-9.72,145.79l-.08,1.63h-1.63c-.52,0-52.42.4-66.2,28.89l-3.25,6.71Z" transform="translate(-596.77 -241.38)"/><path class="cls-2" d="M809.94,265.41s-9.73,145.41-9.73,145.83c0,0-53.32.05-67.74,29.85V340.87c14.42-29.8,77.47-75.46,77.47-75.46m3.9-7.05-5.91,4.28c-2.6,1.88-63.91,46.51-78.54,76.74l-.34.71V456l6.5-13.43c13.33-27.55,64.15-27.92,64.67-27.92h3.41v-3.32c.25-4,9.63-144.28,9.72-145.7l.49-7.28Z" transform="translate(-596.77 -241.38)"/><path class="cls-4" d="M730.76,340.48l.17-.36c9.76-20.16,92.12-60.14,95.62-61.83l2.91-1.41-.48,3.2c-.19,1.28-18.86,126.45-19.43,130.55V412l-1.41.25c-.65.12-65,11.73-74.13,30.59l-3.25,6.71Z" transform="translate(-596.77 -241.38)"/><path class="cls-2" d="M827.29,279.83s-19.45,130.4-19.45,130.69c0,0-65.76,11.66-75.37,31.52V340.87c9.61-19.87,94.82-61,94.82-61m4.34-5.89-5.83,2.81c-.21.1-21.66,10.49-44,23.18-30.91,17.54-48.06,30.45-52.41,39.45l-.34.71V457l6.5-13.43c7.26-15,55.07-26.48,72.89-29.64l2.82-.51v-2.63c.67-4.7,12.91-86.84,19.41-130.41l1-6.4Z" transform="translate(-596.77 -241.38)"/><path class="cls-1" d="M730.76,340.48l.17-.36c.9-1.86,3.3-6.82,58.82-27.88,27.16-10.31,54.07-19.51,54.34-19.61l3-1-.78,3.06C846,295.79,818.43,404.92,817.18,410v1.08l-1.22.36c-30,8.91-78.69,25.57-82,32.31l-3.25,6.71Z" transform="translate(-596.77 -241.38)"/><path class="cls-2" d="M844.65,294.25s-29.18,115.4-29.18,115.54-78.2,23.27-83,33.2V340.87c4.8-9.93,112.18-46.62,112.18-46.62m4.86-5.27-6,2c-.27.09-27.21,9.3-54.39,19.62C733,332,730.56,337,729.39,339.38l-.34.71V457.91l6.5-13.43c.45-.84,4.64-5.74,41.61-18.67,19.74-6.91,39.09-12.68,39.28-12.74l2.45-.73V410.2c1.43-5.76,19.45-77.07,29.07-115.11l1.55-6.11Z" transform="translate(-596.77 -241.38)"/><polygon class="cls-5" points="133.99 98.15 268.02 64.84 227.65 169.01 133.99 205.05 133.99 98.15"/><path class="cls-2" d="M862,308.67,823.1,409.06l-90.63,34.88V340.87L862,308.67m5.57-4.91-6.4,1.59-129.53,32.2-2.59.65V448.93l4.65-1.79,90.62-34.88,1.42-.55.55-1.41,38.9-100.39,2.38-6.15Z" transform="translate(-596.77 -241.38)"/><path class="cls-1" d="M730.33,440.89c-11.51-23.78-30.87-28.77-45.09-28.77a53.19,53.19,0,0,0-13,1.5l-2.17.61v-168l3,3.73c.41.5,41.23,50.76,60.33,90.21l.17.36V447.6Z" transform="translate(-596.77 -241.38)"/><path class="cls-2" d="M671.76,251s40.88,50.15,60.11,89.88v99.27c-12.16-25.12-33-29.73-46.63-29.73A54.62,54.62,0,0,0,671.76,412V251m-3.42-9.61V416.49l4.35-1.23a52.23,52.23,0,0,1,12.55-1.43c13.73,0,32.43,4.82,43.55,27.8l6.5,13.43v-115l-.34-.71c-19.18-39.63-60.13-90-60.54-90.55l-6.07-7.45Z" transform="translate(-596.77 -241.38)"/><path class="cls-3" d="M730.33,441.84C716.55,413.35,664.65,413,664.13,413h-1.71v-1.71c-.08-1.56-9.63-144.27-9.72-145.72l-.25-3.63L655.4,264c2.59,1.88,63.57,46.26,78,76.1l.17.36V448.55Z" transform="translate(-596.77 -241.38)"/><path class="cls-2" d="M654.4,265.41s63.05,45.66,77.47,75.46V441.09c-14.42-29.8-67.74-29.85-67.74-29.85,0-.42-9.73-145.83-9.73-145.83m-3.9-7.05.49,7.28c.09,1.42,9.47,141.66,9.72,145.7v3.32h3.41c.52,0,51.36.41,64.67,27.92l6.5,13.43V340.09l-.34-.71c-14.63-30.23-75.94-74.86-78.54-76.74l-5.91-4.28Z" transform="translate(-596.77 -241.38)"/><path class="cls-4" d="M730.33,442.79c-9.12-18.86-73.48-30.47-74.13-30.59l-1.41-.25v-1.32c-.57-4.1-19.24-129.27-19.43-130.55l-.48-3.2,2.91,1.41c3.5,1.69,85.86,41.67,95.62,61.83l.17.36v109Z" transform="translate(-596.77 -241.38)"/><path class="cls-2" d="M637.05,279.83s85.21,41.17,94.82,61V442c-9.61-19.86-75.37-31.52-75.37-31.52,0-.29-19.45-130.69-19.45-130.69m-4.34-5.89.95,6.4c6.5,43.57,18.75,125.71,19.42,130.41v2.63l2.82.51c17.82,3.16,65.63,14.65,72.89,29.64l6.5,13.43V340.09l-.34-.71c-4.35-9-21.5-21.91-52.41-39.45-22.34-12.69-43.79-23.08-44-23.18l-5.83-2.81Z" transform="translate(-596.77 -241.38)"/><path class="cls-1" d="M730.33,443.74c-3.26-6.74-52-23.4-82-32.31l-1.22-.36V410c-1.25-5.07-28.84-114.2-29.12-115.32l-.78-3.06,3,1c.27.1,27.18,9.3,54.34,19.61,55.52,21.06,57.92,26,58.82,27.88l.17.36v110Z" transform="translate(-596.77 -241.38)"/><path class="cls-2" d="M619.69,294.25s107.38,36.69,112.18,46.62V443c-4.8-9.93-83-33.2-83-33.2s-29.18-115.54-29.18-115.54M614.83,289l1.55,6.11c9.62,38,27.64,109.35,29.07,115.11v2.14l2.45.73c.19.06,19.54,5.83,39.28,12.74,37,12.93,41.16,17.83,41.62,18.68l6.5,13.43V340.09l-.34-.71c-1.17-2.41-3.6-7.43-59.76-28.74C648,300.32,621.07,291.11,620.8,291l-6-2Z" transform="translate(-596.77 -241.38)"/><polygon class="cls-6" points="43.15 169.01 2.79 64.84 136.81 98.15 136.81 205.05 43.15 169.01"/><path class="cls-2" d="M602.34,308.67l129.53,32.2V443.94l-90.63-34.88-38.9-100.39m-5.57-4.91,2.38,6.15,38.9,100.39.55,1.41,1.42.55,90.62,34.88,4.65,1.79V338.2l-2.59-.65-129.53-32.2-6.4-1.59Z" transform="translate(-596.77 -241.38)"/></svg>